<?xml version="1.0" encoding="UTF-8"?><svg id="a" xmlns="http://www.w3.org/2000/svg" viewBox="0 0 197 197"><defs><style>.e{fill:#b27df2;}.f{fill:#1ad9d8;}</style></defs><g id="b"><rect id="c" class="f" width="197" height="197" rx="36" ry="36"/><g id="d"><g><rect class="e" x="75.08" y="65.94" width="46.81" height="18.91" rx="3.5" ry="3.5"/><rect class="e" x="75.08" y="158.61" width="46.81" height="18.91" rx="3.5" ry="3.5"/><rect class="e" x="24.56" y="65.92" width="46.81" height="18.91" rx="3.5" ry="3.5"/><rect class="e" x="75.08" y="42.62" width="46.81" height="18.91" rx="3.5" ry="3.5"/><rect class="e" x="125.64" y="19.48" width="46.81" height="18.91" rx="3.5" ry="3.5"/><rect class="e" x="125.64" y="65.92" width="46.81" height="18.91" rx="3.5" ry="3.5"/><rect class="e" x="125.51" y="112.31" width="46.81" height="18.91" rx="3.5" ry="3.5"/><rect class="e" x="75.08" y="112.35" width="46.81" height="18.91" rx="3.5" ry="3.5"/><rect class="e" x="24.53" y="112.31" width="46.81" height="18.91" rx="3.5" ry="3.5"/><rect class="e" x="24.53" y="135.46" width="46.81" height="18.91" rx="3.5" ry="3.5"/></g></g></g></svg>